<?xml version="1.0" encoding="utf-8"?>
<!-- Generator: Adobe Illustrator 25.2.3, SVG Export Plug-In . SVG Version: 6.00 Build 0)  -->
<svg version="1.1" xmlns="http://www.w3.org/2000/svg" xmlns:xlink="http://www.w3.org/1999/xlink" x="0px" y="0px"
	 viewBox="0 0 64 64" style="enable-background:new 0 0 64 64;" xml:space="preserve">
<style type="text/css">
	.st0{display:none;}
	.st1{display:inline;fill:none;}
	.st2{display:inline;}
	.st3{fill:#FFFFFF;}
</style>
<g id="Layer_1" class="st0">
	<path class="st1" d="M0,0h64v64H0V0z"/>
	<path class="st2" d="M32,58.7C17.3,58.7,5.3,46.7,5.3,32S17.3,5.3,32,5.3S58.7,17.3,58.7,32S46.7,58.7,32,58.7z M26.8,29.3
		c0.7-3.6,4.3-5.9,7.9-5.2c1.1,0.2,2.1,0.7,3,1.4l4.5-3c-4.5-4.9-12.1-5.2-17-0.7c-2.1,2-3.5,4.6-3.8,7.5h-2.7v5.3h2.7
		c0.7,6.6,6.7,11.3,13.3,10.6c2.9-0.3,5.6-1.7,7.5-3.8l-4.5-3c-2.8,2.4-7,2-9.4-0.8c-0.7-0.9-1.2-1.9-1.4-3l13.2,0v-5.3L26.8,29.3
		L26.8,29.3z"/>
</g>
<g id="Layer_3">
</g>
<g id="Layer_2">
	<path class="st3" d="M32,5.3C17.3,5.3,5.3,17.3,5.3,32S17.3,58.7,32,58.7S58.7,46.7,58.7,32S46.7,5.3,32,5.3z M41.1,18.1
		c-0.2,0.6-0.3,1.2-0.4,1.7c-0.1,0.3-0.1,0.3-0.4,0.3c-1.7,0-3.4,0-5,0c-0.4,0-0.8,0.1-1.2,0.2c-0.3,0.1-0.4,0.3-0.6,0.5
		c-0.3,0.5-0.5,1.1-0.5,1.7c0,0.6,0,1.2,0,1.7c0,0.2,0,0.2,0.3,0.2c1.5,0,2.9,0,4.4,0.1c0.3,0,0.3,0.1,0.3,0.3
		c-0.3,1.3-0.7,2.5-1,3.8c0,0.2-0.1,0.2-0.3,0.2c-0.6,0-1.2,0-1.7,0c-0.5,0-1.1,0-1.6,0c-0.3,0-0.3,0-0.3,0.2c0,2,0,3.9,0,5.9
		c0,1.1,0,2.3,0,3.4c0,0,0,0,0,0c0,2.4,0,4.9,0,7.3c0,0.8-0.1,1.6-0.1,2.4c0,1.6-1.5,2.6-2.7,2.6c-0.8,0-1.6,0.1-2.4,0.1
		c-1.1,0-2.2,0-3.2,0c-0.2,0-0.2,0-0.2-0.2c0.3-1.2,0.7-2.5,1-3.7c0.1-0.4,0.2-0.4,0.6-0.4c0.8,0,1.6,0,2.5,0c0.3,0,0.3,0,0.3-0.3
		c0-4.7,0-9.4,0-14c0-1,0-2,0-3c0-0.2,0-0.2-0.2-0.2c-1.3,0-2.7,0-4,0c-0.2,0-0.3,0-0.5,0c-0.2,0-0.2-0.1-0.2-0.3
		c0.2-0.6,0.3-1.2,0.5-1.7c0.2-0.7,0.4-1.3,0.5-2c0.1-0.3,0.1-0.3,0.4-0.3c1.1,0,2.1,0,3.2,0c0.3,0,0.3,0,0.3-0.3
		c0-0.8,0.1-1.7,0.1-2.5c0-0.8,0.4-1.6,0.8-2.3c0.8-1.4,2-2.4,3.4-3.1c0.7-0.4,1.5-0.5,2.3-0.6c2.1-0.1,4.1-0.1,6.2,0
		c0.1,0,0.1,0,0.2,0c0.1,0,0.2,0.1,0.1,0.2C41.5,16.7,41.3,17.4,41.1,18.1z"/>
</g>
</svg>
