<svg xmlns="http://www.w3.org/2000/svg" viewBox="0 0 192 80.02"><defs><style>.cls-1{fill:#00a6aa;}</style></defs><g id="Layer_2" data-name="Layer 2"><g id="Layer_1-2" data-name="Layer 1"><g id="Layer_2-2" data-name="Layer 2"><g id="X2"><path class="cls-1" d="M164,80,153,62.46,142,80H124L174,0h18L162,48l20,32ZM124.2,16.38l17.91-.18L150.7,30l-9.06,14.3Z"/></g><g id="X1"><polygon class="cls-1" points="123.98 80.02 141.98 80.02 191.9 0 173.9 0 123.98 80.02"/></g><g id="O"><path class="cls-1" d="M96.49,80c-4.43,0-10.44-.73-14.06-2.19a25.66,25.66,0,0,1-9.28-6.31,28.91,28.91,0,0,1-6-10.16A40.35,40.35,0,0,1,65,47.73a39.71,39.71,0,0,1,2.15-13.54,28.07,28.07,0,0,1,6-10,25.25,25.25,0,0,1,9.28-6.13C86.05,16.7,92.06,16,96.49,16s11.35.7,15,2.09a25,25,0,0,1,9.33,6.18,28.45,28.45,0,0,1,6,10A39,39,0,0,1,129,47.73a40.51,40.51,0,0,1-2.15,13.63,28.91,28.91,0,0,1-6,10.16,25.52,25.52,0,0,1-9.33,6.31C107.84,79.29,100.85,80,96.49,80Zm0-14.06c3.84,0,9.83-1.63,12-4.89s3.27-7.71,3.27-13.34-1.09-10-3.27-13.06S100.31,30,96.49,30s-8.84,1.54-11,4.61-3.27,7.42-3.27,13.06,1.09,10.08,3.27,13.34,7.15,5,11,5Z"/></g><g id="R"><path class="cls-1" d="M17,80H0V16H35a46.88,46.88,0,0,1,9.74,1,22.45,22.45,0,0,1,8.12,3.35,16.86,16.86,0,0,1,5.53,6.35,21.83,21.83,0,0,1,2.06,10,21.66,21.66,0,0,1-2.79,11.43,19.84,19.84,0,0,1-7.49,7.09L64,80H45.19l-11-21.47H21V45.15H33.84c3.38,0,5.95-.71,7.64-2.11S44,39.49,44,36.68,43.15,32,41.43,31a15.38,15.38,0,0,0-7.59-1.57H17Z"/></g></g></g></g></svg>