<svg xmlns="http://www.w3.org/2000/svg" viewBox="0 0 540.91 99.84"><defs><style>.cls-1{fill:#333;}.cls-2{fill:#00a6aa;}</style></defs><g id="Layer_2" data-name="Layer 2"><g id="Analytics"><g id="Analytics-2" data-name="Analytics"><path class="cls-1" d="M217.36,8,179.64,68.72l7,11.3h4l9.48-15.31h23.43L225.23,80h16l-8-72Zm-9.94,44.89L220,32.64l2.25,20.25ZM274.47,30a16.94,16.94,0,0,0-8.76,2.22,40.27,40.27,0,0,0-6.89,5.17h-.39l-1-6.2H245.63V80H260.1V47a27.43,27.43,0,0,1,4.34-3.49,8.7,8.7,0,0,1,4.72-1.24,5.29,5.29,0,0,1,4.58,2q1.42,2,1.42,7.29V80h14.47V49.69q0-9.25-3.59-14.48T274.47,30Zm41.7,0a33.52,33.52,0,0,0-11,1.77,51.51,51.51,0,0,0-9.89,4.63L300.52,46a46,46,0,0,1,6.65-3.25,17.55,17.55,0,0,1,6.25-1.18q4,0,5.76,1.92a8.29,8.29,0,0,1,1.92,5.17q-14.48,1.47-21,5.81a13.68,13.68,0,0,0-6.5,12,16,16,0,0,0,1,5.81,14.82,14.82,0,0,0,2.9,4.68,13,13,0,0,0,4.58,3.15,15.48,15.48,0,0,0,6.05,1.13,16.7,16.7,0,0,0,7.58-1.72,31.47,31.47,0,0,0,6.6-4.48h.39l1,5h11.82v-28q0-11.32-5-16.69T316.17,30Zm4.92,35.84a21,21,0,0,1-3.74,3.05A8,8,0,0,1,313.12,70,6.76,6.76,0,0,1,309,68.85a4.06,4.06,0,0,1-1.52-3.49q0-2.86,2.95-4.93t10.63-3.15Zm18.53,6.62,7.64,7.75h6.83V8H339.62ZM392.69,31c-5.46,18.33-8.38,26.38-9.3,28.68-.66-2.43-4.37-10.31-11.21-28.57H357.61l17.7,44L363.84,99.84h15.09L390.41,75l16.15-44ZM438.77,69.4a10.2,10.2,0,0,1-2.41.3,6,6,0,0,1-4.57-1.82c-1.15-1.22-1.73-3.2-1.73-6V42.33h11.72V31H430.06V18h-12l-1.68,12.89h-6.49l-4.28,11.57,10-.13V62.12a30.08,30.08,0,0,0,.94,7.73,15.73,15.73,0,0,0,3,6,13.6,13.6,0,0,0,5.22,3.84A19.42,19.42,0,0,0,432.43,81a28.7,28.7,0,0,0,6.2-.59c1.77-.4,3.31-.79,4.62-1.18L441,68.71A16.8,16.8,0,0,1,438.77,69.4Zm6.83,2.8,6.69,7.65h7.78V31H445.6ZM494,68.46a10.65,10.65,0,0,1-4.58,1,9.72,9.72,0,0,1-7.83-3.74q-3.1-3.73-3.1-10.14t3.05-10.14a10.23,10.23,0,0,1,8.37-3.75c2.1,0,3.34,1,5.64,2.86l7.74-9.35A25,25,0,0,0,497,31.48,20.53,20.53,0,0,0,489,30a27.33,27.33,0,0,0-9.64,1.72,24.25,24.25,0,0,0-8.13,5,23.69,23.69,0,0,0-5.56,8,27,27,0,0,0-2.06,10.88,29.71,29.71,0,0,0,1.87,10.88,23,23,0,0,0,5.12,8,22.12,22.12,0,0,0,7.63,5,25.7,25.7,0,0,0,9.5,1.72A27.67,27.67,0,0,0,496,79.88a22,22,0,0,0,7.87-4.48L497.2,66C495.89,66.93,495.45,67.77,494,68.46Zm45.76-8.76a13,13,0,0,0-3.1-4.08,19.22,19.22,0,0,0-4.23-2.81c-1.55-.76-3.1-1.43-4.68-2l-3.59-1.33a25.81,25.81,0,0,1-3-1.33A7.62,7.62,0,0,1,519,46.61a2.87,2.87,0,0,1-.79-2q0-3.84,5.51-3.84a13,13,0,0,1,5.12,1.08A25.47,25.47,0,0,1,534,44.88l6.5-8.66a39.4,39.4,0,0,0-7.38-4.28A23.66,23.66,0,0,0,523.29,30a24.44,24.44,0,0,0-7.68,1.14,18.75,18.75,0,0,0-5.9,3.1,13.31,13.31,0,0,0-3.79,4.82,14.59,14.59,0,0,0-1.33,6.2,11.73,11.73,0,0,0,1.18,5.37,14.35,14.35,0,0,0,3.05,4,19.51,19.51,0,0,0,4.14,2.9,46.28,46.28,0,0,0,4.53,2.07c1.24.52,2.46,1,3.64,1.42a22.32,22.32,0,0,1,3.2,1.43,8.62,8.62,0,0,1,2.26,1.72,3.1,3.1,0,0,1,.84,2.12,3.56,3.56,0,0,1-1.48,3,8,8,0,0,1-4.72,1.09A16.11,16.11,0,0,1,515,69.2a29.86,29.86,0,0,1-6.4-3.84l-3.58,5.88,5.89,8.1s6.68,1.87,9.9,1.87A27.84,27.84,0,0,0,529.49,80a19.32,19.32,0,0,0,6.3-3.35,13.69,13.69,0,0,0,3.84-5,15,15,0,0,0,1.28-6.2A13,13,0,0,0,539.73,59.7Z"/></g></g><g id="X2"><path class="cls-2" d="M164,80,153,62.46,142,80H124L174,0h18L162,48l20,32ZM124.2,16.38l17.91-.18L150.7,30,141.64,44.3Z"/></g><g id="X1"><polygon class="cls-2" points="123.98 80.02 141.98 80.02 191.9 0 173.9 0 123.98 80.02"/></g><g id="Dot"><g id="i"><polygon class="cls-2" points="453.6 8 445.6 16 445.6 27.3 460.07 27.3 460.07 8 453.6 8"/></g></g><g id="O"><path class="cls-2" d="M96.49,80c-4.43,0-10.44-.73-14.06-2.19a25.66,25.66,0,0,1-9.28-6.31,28.93,28.93,0,0,1-6-10.16A40.51,40.51,0,0,1,65,47.73a39.67,39.67,0,0,1,2.15-13.54,28,28,0,0,1,6-10,25.25,25.25,0,0,1,9.28-6.13C86.05,16.7,92.06,16,96.49,16s11.35.7,15,2.09a25,25,0,0,1,9.33,6.18,28.5,28.5,0,0,1,6,10A39.15,39.15,0,0,1,129,47.73a40.51,40.51,0,0,1-2.15,13.63,28.93,28.93,0,0,1-6,10.16,25.52,25.52,0,0,1-9.33,6.31C107.84,79.29,100.85,80,96.49,80Zm0-14.06c3.84,0,9.83-1.63,12-4.89s3.27-7.71,3.27-13.34-1.09-10-3.27-13.06-8.18-4.61-12-4.61-8.84,1.54-11,4.61-3.27,7.42-3.27,13.06,1.09,10.08,3.27,13.34S92.64,66,96.49,66Z"/></g><g id="R"><path class="cls-2" d="M17,80H0V16H35a46.93,46.93,0,0,1,9.74,1,22.45,22.45,0,0,1,8.12,3.35,16.86,16.86,0,0,1,5.53,6.35,21.82,21.82,0,0,1,2.06,10,21.64,21.64,0,0,1-2.79,11.43,19.84,19.84,0,0,1-7.49,7.09L64,80H45.19l-11-21.47H21V45.15H33.84c3.38,0,5.95-.71,7.64-2.11S44,39.49,44,36.68,43.15,32,41.43,31s-4.28-1.57-7.59-1.57H17Z"/></g></g></svg>